<svg version="1.2" xmlns="http://www.w3.org/2000/svg" viewBox="0 0 740 754" width="740" height="754"><style>.a{fill:#276b9b}.b{fill:#01ffff}</style><path class="a" d="m552.4 0c0.6 0 28.5 28.7 62 63.7 33.6 35.1 66.9 69.8 74.1 77.1 7.1 7.3 12.7 13.3 12.2 13.2-0.4 0-29.8-30.3-65.4-67.3-35.6-36.9-69-71.6-74.3-77-5.2-5.3-9.1-9.7-8.6-9.7zm149.1 155c0.5 0 8.9 8.4 18.5 18.7 9.6 10.3 17 18.4 16.5 18.1-0.6-0.3-8.9-8.7-18.5-18.7-9.6-9.9-17-18.1-16.5-18.1zm-702 423.5l4 3.6c2.2 2 38.9 37.2 81.5 78.4 42.6 41.1 81.5 78.9 95.5 93l-9.5-9.1c-5.2-5-44.2-42.5-86.5-83.4-42.4-40.9-78.8-76.1-81-78.4z"/><path fill-rule="evenodd" d="m550 0c0.8 0 34.6 34.3 75.1 76.2 40.4 42 82.8 86.1 94.2 98 12.8 13.5 20.7 22.6 20.7 23.8 0 1.1-5.8 26.4-12.9 56.2-7.1 29.9-21.5 91-32 135.8-10.5 44.8-28.2 120.5-39.3 168.1-11.2 47.7-20.7 87.1-21.2 87.5-0.4 0.5-45.7 11.6-100.5 24.7-54.8 13.1-153.8 36.9-220.1 52.9-90.7 21.9-122.1 29.1-133.8 29.3l-90.1-87c-80.2-77.6-89.8-87.1-88.3-88.3 1.3-1 8.5-31.5 28-117.5 14.4-63.9 37.7-166.4 51.7-227.7 14.1-61.3 25.9-112.4 26.4-113.5 0.7-1.6 5.6-3.2 27.7-8.9 14.8-3.8 65.4-16.9 112.4-29.2 47-12.2 113.6-29.7 148-38.7 34.4-9.1 82.3-21.5 106.5-27.7 24.2-6.2 44.4-11.9 45-12.7 0.5-0.7 1.6-1.3 2.5-1.3zm-350.2 215.5c-17.8 71.3-28.8 116.1-35.9 145.5-7.2 29.4-18.1 74.4-24.4 100-6.3 25.6-12.8 53.6-14.5 62.2l-3 15.8c12 15 19.8 24.1 25 29.8 5.2 5.7 11.3 12.5 13.6 15.1 2.2 2.5 14.6 15 27.5 27.7l23.4 23.1c169.7-43.2 241-61.3 268-68.1 26.9-6.8 50.7-13.1 52.7-14 2.5-1 4.3-2.8 5.3-4.9 0.8-1.7 9.9-35.2 20.1-74.2 10.2-39.1 28.8-110.3 41.4-158.3 21.3-80.8 22.9-87.4 21.5-89.5-0.8-1.2-11.3-12.3-23.2-24.7-12-12.4-23.7-24.1-25.9-26-2.3-1.9-13.5-11.8-24.8-22-11.4-10.2-21-18.6-21.4-18.7-0.4 0-73.8 18.2-163.1 40.5z"/><path class="b" d="m39.3 617c0.5 0 3.6 2.9 7 6.5 3.4 3.6 6 6.5 5.7 6.5-0.3 0-3.4-2.9-7-6.5-3.6-3.6-6.1-6.5-5.7-6.5zm31 30c0.5 0 3.6 2.9 7 6.5 3.4 3.6 6 6.5 5.7 6.5-0.3 0-3.4-2.9-7-6.5-3.6-3.6-6.1-6.5-5.7-6.5zm30 29c0.5 0 3.6 2.9 7 6.5 3.4 3.6 6 6.5 5.7 6.5-0.3 0-3.4-2.9-7-6.5-3.6-3.6-6.1-6.5-5.7-6.5z"/><path class="a" d="m620.2 130c0.4 0 17.3 16.3 74 72.5l-31.5 130.5c-17.4 71.8-39.3 162.2-48.6 201-9.4 38.8-17.5 71.5-18.1 72.7-0.5 1.3-2.7 3-4.8 3.9-2 0.9-28 7.4-57.7 14.4-29.7 7.1-93.2 22.4-141 34-47.9 11.6-113.1 27.4-203 48.8l-20.3-20.1c-11.2-11.1-27.2-27.3-50.7-51.8l46.5-46.4 45.5 45.6 153-38.6c84.1-21.3 157.3-40 162.5-41.6 7.6-2.3 9.8-3.5 11.2-5.7 0.9-1.5 8.4-28.8 16.8-60.7 8.3-31.9 27-103.2 41.5-158.5 14.6-55.3 26.5-101.3 26.5-102.3 0-0.9-10.4-12.3-23-25.2-15.7-16.1-22.8-23.9-22.3-24.8 0.5-0.8 10.2-11.8 21.7-24.5 11.6-12.8 21.4-23.2 21.8-23.2z"/><path fill-rule="evenodd" class="b" d="m544.7 60.3c0.6 0.1 14.8 13.1 31.5 28.8 16.7 15.7 33.1 31.1 36.5 34.2 3.5 3.1 6.4 5.9 6.5 6.1 0.2 0.3-9.4 11.3-21.2 24.5-11.8 13.2-22 24-22.5 24.1-0.6 0-4.6-3.2-9-7.2-4.4-4.1-14.3-12.9-22-19.7-7.7-6.8-15.1-13.4-19-17l-325.7 81.4-11.5 46c-6.3 25.3-17.3 70.1-24.4 99.5-7.2 29.4-18.1 74.4-24.4 100-6.3 25.6-12.8 53.6-17.5 78l7.7 9.7c4.3 5.3 12.1 14.4 17.3 20.1 5.2 5.7 11.4 12.7 18.1 20.7l-46.6 46.3-20-19.2c-11-10.6-27.2-26.1-36-34.5-8.8-8.4-16.1-16.1-16.3-17-0.1-0.9 4.1-19.8 9.3-42.1 5.3-22.3 16.5-70.4 25-107 8.4-36.6 20.8-89.7 27.4-118 6.6-28.3 16.9-72 22.8-97.1 5.9-25.1 11.2-46.1 11.7-46.5 0.4-0.5 28.3-7.3 62-15.1 33.6-7.9 107.2-25.1 163.6-38.3 56.4-13.2 118.9-27.8 139-32.4 20.1-4.6 37-8.3 37.7-8.3zm-378.4 529.7c0.4 0 10.7 10.1 23 22.5 12.2 12.4 22 22.5 21.7 22.5-0.3 0-10.6-10.1-23-22.5-12.4-12.4-22.2-22.5-21.7-22.5z"/><path class="a" d="m564.4 214.1c7.8 7.4 16.1 15.2 18.6 17.3 2.5 2.1 3.5 3.3 2.2 2.7-1.2-0.6-9.5-8.4-18.5-17.4-14.5-14.3-14.7-14.7-2.3-2.6zm-18.7-13.1c0.2 0 0.3 0.1 0.3 0.2 0 0.2-8 8.2-35.5 35.3l17.5-17.8c9.6-9.7 17.6-17.7 17.7-17.7zm37 53.5c0.1 0.2-1.7 8.3-4 17.9-2.3 9.6-4.3 17.4-4.5 17.3-0.2-0.1 1.6-8.2 4-17.9 2.4-9.7 4.4-17.5 4.5-17.3zm-11 45c0.1 0.2-2 9.2-4.5 19.9-2.6 10.7-4.8 19.4-5 19.3-0.2-0.1 1.8-9.1 4.5-19.9 2.6-10.8 4.9-19.5 5-19.3zm-11 45c0.1 0.2-2.2 10.1-5 21.9-2.9 11.8-5.4 21.4-5.5 21.3-0.2-0.1 2-10 5-21.9 2.9-11.9 5.4-21.5 5.5-21.3zm-174.7 16.5c0.2 0-6.3 6.8-14.5 15-8.3 8.3-15.2 15-15.5 15-0.3 0 6.2-6.7 14.5-15 8.2-8.2 15.2-15 15.5-15zm162.7 32.5c0.1 0.2-2.4 11-5.5 23.9-3.2 12.9-5.9 23.3-6.2 23-0.3-0.2 2.2-11 5.5-23.9 3.3-12.8 6.1-23.2 6.2-23zm-197 2.5c0.2 0 0.3 0.1 0.3 0.2 0 0.2-32.3 32.5-143.5 143.3l71.5-71.8c39.3-39.4 71.6-71.7 71.7-71.7zm185 46.5c0.1 0.2-2.9 12.8-6.5 27.9-3.7 15.1-6.9 27.3-7.2 27-0.3-0.2 2.6-12.8 6.5-27.9 3.8-15 7.1-27.2 7.2-27zm-14 57c0.1 0.2-1.1 5.4-2.5 11.4-1.5 6.1-2.8 11-3 10.8-0.1-0.1 1-5.2 2.5-11.4 1.6-6.1 2.9-11 3-10.8zm-7.8 23.6c0.8-0.1 1.2 0.1 1 0.3-0.2 0.2-21.1 5.2-46.4 11.1-25.3 5.8-46.1 10.5-46.2 10.3-0.1-0.2 20.1-5.1 45-11 24.9-5.8 45.8-10.7 46.6-10.7zm-94.4 22.1c1.1 0-4.1 1.5-11.5 3.4-7.4 1.8-14.2 3.3-15 3.2-0.8 0 4.3-1.5 11.5-3.3 7.1-1.8 13.9-3.3 15-3.3zm-30.1 6.9c1.1 0 1.7 0.1 1.5 0.3-0.2 0.2-9.6 2.5-20.9 5-11.3 2.6-20.6 4.6-20.7 4.4-0.1-0.2 8.4-2.4 19-4.9 10.6-2.6 20.1-4.7 21.1-4.8zm-157.9 36.1l5-0.5c3.4-0.4 4.2-0.3 2.5 0.3-1.4 0.4-3.6 0.8-5 0.9-1.9 0-6-3.4-17.8-15.2-8.5-8.3-16.2-16.3-17.2-17.7-1-1.4 5.9 5.3 32.5 32.2zm115-26c1.1 0-4.1 1.5-11.5 3.4-7.4 1.8-14.2 3.3-15 3.2-0.8 0 4.3-1.5 11.5-3.3 7.1-1.8 13.9-3.3 15-3.3zm-30 7c1.1 0-4.1 1.5-11.5 3.4-7.4 1.8-14.2 3.3-15 3.2-0.8 0 4.3-1.5 11.5-3.3 7.1-1.8 13.9-3.3 15-3.3zm-30 7c1.1 0-4.1 1.5-11.5 3.4-7.4 1.8-14.2 3.3-15 3.2-0.8 0 4.3-1.5 11.5-3.3 7.1-1.8 13.9-3.3 15-3.3zm-30 7c1.1 0-1.2 0.8-5 1.9-3.9 1-7.7 1.8-8.5 1.8-0.8-0.1 1.4-0.9 5-1.9 3.6-1 7.4-1.8 8.5-1.8z"/><path  d="m548.4 200c0.6 0 7.6 6.5 15.6 14.3 8 7.9 16.4 15.9 22.9 21.2l-31 126.5c-17 69.6-32.8 134.1-39.1 160.5l-140.7 32.9c-77.3 18-141.5 32.5-142.6 32.2-1.1-0.3-9.5-8.2-35.5-34.6l1.7-2.9c1-1.6 43.2-44.6 93.8-95.7 50.6-51.1 128.4-129.2 172.9-173.6 44.4-44.4 81.3-80.8 82-80.8z"/><path class="b" d="m204.3 561c0.5 0 3.6 2.9 7 6.5 3.4 3.6 6 6.5 5.7 6.5-0.3 0-3.4-2.9-7-6.5-3.6-3.6-6.1-6.5-5.7-6.5z"/></svg>